<?xml version="1.0" encoding="UTF-8"?>
<svg version="1.1" xmlns="http://www.w3.org/2000/svg" width="32" height="32">
<path d="M0 0 C5.19459705 2.12258292 6.73628854 6.13773634 9.3125 10.875 C9.77978516 11.69097656 10.24707031 12.50695313 10.72851562 13.34765625 C11.38303711 14.53294922 11.38303711 14.53294922 12.05078125 15.7421875 C12.64886597 16.82282471 12.64886597 16.82282471 13.2590332 17.92529297 C14 20 14 20 13 24 C9.7 24 6.4 24 3 24 C3 26.31 3 28.62 3 31 C1.68 31 0.36 31 -1 31 C-1 28.69 -1 26.38 -1 24 C-4.3 24 -7.6 24 -11 24 C-12.12130746 19.51477016 -11.95097859 19.20772638 -9.7265625 15.48828125 C-9.2315625 14.64845703 -8.7365625 13.80863281 -8.2265625 12.94335938 C-7.69804688 12.07517578 -7.16953125 11.20699219 -6.625 10.3125 C-6.10421875 9.43271484 -5.5834375 8.55292969 -5.046875 7.64648438 C-1.22421131 1.22421131 -1.22421131 1.22421131 0 0 Z " fill="#000600" transform="translate(15,0)"/>
<path d="M0 0 C0.66 0 1.32 0 2 0 C3.7265625 2.5546875 3.7265625 2.5546875 5.625 5.875 C6.25664062 6.96554688 6.88828125 8.05609375 7.5390625 9.1796875 C9 12 9 12 9 14 C3.72 14 -1.56 14 -7 14 C-5.58843021 10.47107553 -4.22615467 7.45137797 -2.375 4.1875 C-1.92898437 3.39730469 -1.48296875 2.60710938 -1.0234375 1.79296875 C-0.68570312 1.20128906 -0.34796875 0.60960937 0 0 Z " fill="#1DEF0E" transform="translate(15,6)"/>
</svg>
